<?xml version="1.0" encoding="utf-8"?>
<!-- Generator: Adobe Illustrator 21.0.2, SVG Export Plug-In . SVG Version: 6.00 Build 0)  -->
<svg version="1.1" id="Capa_1" xmlns="http://www.w3.org/2000/svg" xmlns:xlink="http://www.w3.org/1999/xlink" x="0px" y="0px"
	 viewBox="0 0 663 360.3" style="enable-background:new 0 0 663 360.3;" xml:space="preserve">
<style type="text/css">
	.st0{fill:#FFFFFF;stroke:#FFFFFF;stroke-width:9;stroke-miterlimit:10;}
	.st1{fill:#FFFFFF;stroke:#FFFFFF;stroke-miterlimit:10;}
</style>
<g>
	<path class="st0" d="M4.5,179.4c0.1-11.3,1.2-22.6,3.1-33.8c1.9-11.2,4.6-22.2,8.1-33c7.1-21.5,17.8-42,32.8-59.2
		c7.5-8.6,16.1-16.2,25.5-22.6c2.3-1.6,4.8-3.1,7.2-4.6c2.4-1.5,4.9-2.9,7.5-4.1c2.6-1.3,5.1-2.5,7.7-3.7c2.6-1.2,5.2-2.3,7.9-3.2
		c10.7-3.9,21.8-6.8,33.1-8.4c11.3-1.7,22.7-2.4,34.1-2.3l8.6,0.2l8.5,0.6c1.4,0.1,2.8,0.2,4.3,0.4l4.3,0.5c1.4,0.2,2.8,0.3,4.3,0.5
		l4.2,0.7c11.3,1.8,22.4,4.6,33.2,8.4c10.8,3.8,21.1,8.8,30.8,14.9c9.7,6.1,18.6,13.4,26.5,21.6c7.9,8.3,14.7,17.5,20.3,27.5
		c2.8,5,5.2,10.2,7.3,15.5l0.8,1.9l0.7,2c0.5,1.4,1,2.7,1.4,4.1c0.8,2.7,1.6,5.5,2.2,8.3c2.7,11.1,3.4,22.6,2.3,34
		c-0.7,11.3-1,22.6-0.8,33.9c0.5,22.5,3,45.2,9.4,66.8c3.1,10.8,7.3,21.4,12.5,31.4c5.2,10,11.7,19.3,19.1,27.8
		c7.5,8.4,16.1,15.8,25.6,22c4.7,3.1,9.6,5.9,14.7,8.4c5.1,2.5,10.3,4.7,15.6,6.6c21.3,7.7,44,11,66.7,11.7c2.8,0.1,5.7,0.1,8.5,0.2
		c1.4,0,2.8,0,4.2-0.1l4.2-0.3c5.6-0.5,11.3-1.3,16.8-2.4c5.6-1,11.1-2.5,16.5-4l4.1-1.3l2-0.6l2-0.7l4-1.4c1.3-0.5,2.6-1,4-1.5
		c10.6-4.1,20.7-9.3,30.3-15.4c9.5-6.1,18.3-13.3,26.2-21.4c7.9-8.1,14.8-17.2,20.5-27c5.6-9.8,10.1-20.3,13.4-31.1l1.2-4.1
		c0.4-1.4,0.8-2.7,1.1-4.1l1.8-8.3l0.2-1l0.2-1.1l0.3-2.1l0.7-4.2l0.6-4.2l0.4-4.2c0.2-2.8,0.6-5.6,0.7-8.5l0.3-8.5
		c0-1.4,0.1-2.8,0.1-4.2l-0.1-4.2l-0.2-8.5l0.3,8.5l0.1,4.2c0,1.4,0,2.8-0.1,4.2l-0.2,8.5c-0.2,2.8-0.5,5.6-0.7,8.5l-0.4,4.2
		l-0.6,4.2l-0.6,4.2l-0.3,2.1l-0.2,1.1l-0.2,1l-1.8,8.3c-0.3,1.4-0.7,2.8-1.1,4.1l-1.2,4.1c-3.2,10.9-7.6,21.4-13.2,31.3
		c-5.6,9.9-12.5,19-20.4,27.2c-7.9,8.2-16.7,15.5-26.3,21.7c-9.6,6.2-19.8,11.4-30.4,15.6c-1.3,0.5-2.6,1.1-4,1.6l-4,1.5l-2,0.7
		l-2,0.6l-4.1,1.3c-5.5,1.6-11,3-16.6,4.1c-5.6,1.1-11.3,2-17,2.5l-4.3,0.3c-1.4,0-2.9,0.1-4.3,0.1c-2.9,0-5.7,0-8.5-0.1
		c-11.4-0.3-22.8-1.4-34.1-3.2c-11.3-1.8-22.4-4.7-33.2-8.5c-5.4-2-10.6-4.2-15.8-6.7c-5.1-2.5-10.1-5.4-14.9-8.5
		c-9.6-6.3-18.3-13.8-25.9-22.3c-7.6-8.5-14.1-18-19.4-28.1c-5.3-10.1-9.5-20.7-12.7-31.7c-6.4-21.9-9-44.6-9.5-67.3
		c-0.2-11.4,0.1-22.7,0.9-34l0.3-4.2l0.2-4.2c0.1-1.4,0-2.8,0-4.2v-2.1l-0.1-2.1c-0.1-2.8-0.5-5.6-0.9-8.4c-0.5-2.8-0.9-5.5-1.6-8.3
		c-0.7-2.7-1.4-5.4-2.2-8.1c-0.4-1.3-0.9-2.7-1.3-4l-0.7-2l-0.8-1.9c-2-5.2-4.4-10.3-7.1-15.3c-5.5-9.8-12.2-19-20-27.1
		c-7.8-8.1-16.7-15.3-26.2-21.3c-9.6-6-19.8-11-30.4-14.8c-10.7-3.8-21.7-6.6-32.9-8.4l-4.2-0.7c-1.4-0.2-2.8-0.4-4.2-0.5l-4.2-0.5
		c-1.4-0.2-2.8-0.3-4.2-0.4l-8.5-0.6L171.7,6c-11.3-0.2-22.7,0.5-33.9,2.1c-11.2,1.6-22.3,4.4-32.9,8.2c-2.7,0.9-5.3,2.1-7.9,3.1
		c-2.6,1.1-5.2,2.3-7.7,3.6s-5,2.7-7.5,4.1c-2.5,1.4-4.8,2.9-7.2,4.6c-4.7,3.2-9.2,6.6-13.4,10.4c-4.2,3.8-8.2,7.7-12,12
		C34.2,71,23.4,91.4,16.2,112.8c-3.6,10.7-6.4,21.7-8.3,32.9C5.8,156.8,4.7,168.1,4.5,179.4z"/>
	<rect x="447.1" y="50.4" class="st1" width="32.4" height="47.9"/>
	<rect x="520" y="50.4" class="st1" width="33.7" height="47.9"/>
</g>
</svg>
